<?xml version="1.0" ?><svg data-name="Layer 1" id="Layer_1" viewBox="0 0 48 48" xmlns="http://www.w3.org/2000/svg"><defs><style>.cls-1,.cls-2{fill:none;stroke:#000;stroke-width:2px;}.cls-1{stroke-miterlimit:10;}.cls-2{stroke-linecap:round;stroke-linejoin:round;}</style></defs><title/><path class="cls-1" d="M10.49,8.94A3.07,3.07,0,0,0,9,9.37a7.6,7.6,0,0,0-1.32.82A5.17,5.17,0,0,0,6,14.38,12.51,12.51,0,0,0,7.34,19a26,26,0,0,1,1.81,4.52c0.77,3.18-.1,6.26.1,9.44a15.2,15.2,0,0,0,3.31,8.6c4.66,5.73,12.93,6.78,19.44,3.73a18.57,18.57,0,0,0,8.07-7.53,13.89,13.89,0,0,0,1.73-9.19,15.06,15.06,0,0,0-4.28-7.75c-3.64-3.68-8.81-5.23-12.37-8.95C23.58,10.26,22.8,8,20.73,6.81A6.57,6.57,0,0,0,16,6.3a6.63,6.63,0,0,0-3.39,1.61,3.92,3.92,0,0,1-.82.84A2.14,2.14,0,0,1,10.49,8.94Z"/><path class="cls-2" d="M11.82,8.75S7.85,4.66,9.39,1"/><path class="cls-2" d="M34.12,25.5s5.06,7,0,12.37"/></svg>